<svg width="149" height="225" viewBox="0 0 149 225" fill="none" xmlns="http://www.w3.org/2000/svg">
<rect x="61.7568" y="126.765" width="18.202" height="31.2037" rx="9.101" fill="#1C2943"/>
<rect x="95.5605" y="126.765" width="18.202" height="31.2037" rx="9.101" fill="#1C2943"/>
<path d="M87.7598 0C98.8895 6.08181e-05 107.912 9.02254 107.912 20.1523C107.912 26.1398 105.301 31.517 101.155 35.2078C98.1478 37.8848 95.5605 41.3571 95.5605 45.3831V50.9689C95.5605 56.1721 99.566 60.4427 104.688 61.3567C111.446 62.5627 117.808 64.4729 123.773 67.0879C132.017 70.5414 139.279 75.2224 145.559 81.1305C149.415 84.7584 148.949 90.8246 145.058 94.4159L135.857 102.909C131.728 106.722 125.33 106.283 120.966 102.742C117.549 99.9693 113.935 97.7164 110.122 95.9834C103.448 92.7981 96.1665 91.2061 88.2793 91.2061C80.8472 91.2061 74.0218 92.4198 67.8027 94.8467C61.5837 97.2736 56.1989 100.762 51.6484 105.312C47.0979 109.863 43.5327 115.248 40.9541 121.467C38.5272 127.686 37.3145 134.587 37.3145 142.172C37.3145 149.756 38.5272 156.658 40.9541 162.877C43.5327 169.096 47.0979 174.481 51.6484 179.031C56.1989 183.582 61.5838 187.07 67.8027 189.497C74.0218 191.924 80.8472 193.138 88.2793 193.138C96.1666 193.138 103.448 191.621 110.122 188.587C113.938 186.766 117.556 184.424 120.976 181.561C125.321 177.923 131.784 177.446 135.948 181.29L145.058 189.7C148.949 193.292 149.414 199.356 145.567 202.994C139.285 208.935 132.021 213.689 123.773 217.256C112.701 222.11 100.187 224.537 86.2324 224.537C73.9462 224.537 62.4937 222.565 51.876 218.621C41.4098 214.526 32.3081 208.761 24.5723 201.329C16.8365 193.897 10.7699 185.174 6.37109 175.163C2.12397 165.152 2.37873e-06 154.155 0 142.172C0 130.189 2.12398 119.192 6.37109 109.181C10.7699 99.1695 16.8365 90.4472 24.5723 83.0146C32.4598 75.5821 41.6374 69.894 52.1035 65.9502C57.9591 63.6589 64.1233 62.0091 70.5962 61.0001C75.8238 60.1851 79.959 55.8715 79.959 50.5807V45.3831C79.959 41.3571 77.3717 37.8848 74.3647 35.2078C70.2188 31.517 67.6074 26.1398 67.6074 20.1523C67.6074 9.0225 76.63 0 87.7598 0Z" fill="url(#paint0_linear_7_125)"/>
<defs>
<linearGradient id="paint0_linear_7_125" x1="24.784" y1="16.6213" x2="150.84" y2="223.017" gradientUnits="userSpaceOnUse">
<stop stop-color="#FDE80F"/>
<stop offset="0.221154" stop-color="#FF9600"/>
<stop offset="0.480769" stop-color="#B2C38A"/>
<stop offset="0.7" stop-color="#79ABE8"/>
<stop offset="1" stop-color="#4B94FC"/>
</linearGradient>
</defs>
</svg>
