<svg width="581" height="225" viewBox="0 0 581 225" fill="none" xmlns="http://www.w3.org/2000/svg">
<path d="M226.343 127.464H214.317C213.855 124.899 212.994 122.642 211.735 120.692C210.476 118.743 208.935 117.089 207.11 115.729C205.286 114.37 203.243 113.344 200.982 112.651C198.746 111.959 196.37 111.612 193.852 111.612C189.304 111.612 185.231 112.754 181.634 115.037C178.062 117.319 175.236 120.667 173.154 125.078C171.099 129.49 170.071 134.876 170.071 141.237C170.071 147.65 171.099 153.062 173.154 157.473C175.236 161.885 178.075 165.219 181.672 167.477C185.269 169.734 189.316 170.862 193.813 170.862C196.305 170.862 198.669 170.529 200.905 169.862C203.166 169.169 205.209 168.156 207.033 166.823C208.857 165.489 210.399 163.86 211.658 161.936C212.943 159.987 213.829 157.755 214.317 155.242L226.343 155.28C225.7 159.153 224.454 162.719 222.604 165.976C220.78 169.208 218.429 172.004 215.551 174.363C212.699 176.698 209.435 178.506 205.761 179.788C202.087 181.071 198.078 181.712 193.736 181.712C186.901 181.712 180.811 180.096 175.467 176.864C170.122 173.607 165.908 168.951 162.825 162.898C159.767 156.845 158.239 149.625 158.239 141.237C158.239 132.824 159.78 125.604 162.864 119.576C165.947 113.523 170.161 108.881 175.505 105.649C180.85 102.391 186.927 100.763 193.736 100.763C197.924 100.763 201.83 101.365 205.453 102.571C209.101 103.751 212.378 105.495 215.281 107.803C218.185 110.086 220.587 112.882 222.488 116.191C224.39 119.474 225.675 123.232 226.343 127.464ZM233.157 180.635V121.539H244.295V130.926H244.912C245.991 127.746 247.893 125.245 250.616 123.424C253.366 121.577 256.475 120.654 259.943 120.654C260.663 120.654 261.511 120.679 262.487 120.731C263.489 120.782 264.273 120.846 264.838 120.923V131.927C264.376 131.798 263.554 131.657 262.372 131.503C261.19 131.324 260.008 131.234 258.826 131.234C256.102 131.234 253.674 131.811 251.541 132.965C249.434 134.094 247.764 135.671 246.531 137.698C245.297 139.698 244.681 141.981 244.681 144.546V180.635H233.157ZM291.694 181.827C285.862 181.827 280.839 180.583 276.624 178.095C272.436 175.582 269.198 172.055 266.912 167.515C264.65 162.949 263.52 157.602 263.52 151.471C263.52 145.418 264.65 140.083 266.912 135.466C269.198 130.849 272.384 127.246 276.47 124.655C280.581 122.064 285.386 120.769 290.885 120.769C294.226 120.769 297.462 121.321 300.598 122.424C303.733 123.526 306.545 125.258 309.038 127.617C311.53 129.977 313.496 133.042 314.935 136.813C316.374 140.558 317.094 145.11 317.094 150.471V154.549H270.034V145.931H305.8C305.8 142.905 305.184 140.224 303.951 137.89C302.717 135.53 300.983 133.671 298.748 132.311C296.538 130.952 293.943 130.272 290.962 130.272C287.725 130.272 284.898 131.067 282.482 132.658C280.093 134.222 278.243 136.274 276.932 138.813C275.648 141.327 275.006 144.059 275.006 147.008V153.741C275.006 157.691 275.699 161.051 277.086 163.822C278.499 166.592 280.465 168.708 282.983 170.17C285.502 171.606 288.444 172.324 291.81 172.324C293.994 172.324 295.985 172.016 297.784 171.401C299.582 170.76 301.137 169.811 302.447 168.554C303.757 167.297 304.76 165.745 305.453 163.899L316.361 165.861C315.487 169.067 313.92 171.875 311.659 174.286C309.424 176.672 306.61 178.531 303.218 179.865C299.852 181.173 296.011 181.827 291.694 181.827ZM348.304 181.827C342.754 181.827 337.911 180.558 333.774 178.018C329.637 175.479 326.425 171.927 324.138 167.361C321.852 162.796 320.708 157.46 320.708 151.356C320.708 145.226 321.852 139.865 324.138 135.274C326.425 130.683 329.637 127.117 333.774 124.578C337.911 122.039 342.754 120.769 348.304 120.769C353.854 120.769 358.699 122.039 362.836 124.578C366.972 127.117 370.184 130.683 372.47 135.274C374.757 139.865 375.9 145.226 375.9 151.356C375.9 157.46 374.757 162.796 372.47 167.361C370.184 171.927 366.972 175.479 362.836 178.018C358.699 180.558 353.854 181.827 348.304 181.827ZM348.343 172.17C351.94 172.17 354.922 171.221 357.286 169.323C359.649 167.425 361.396 164.899 362.527 161.744C363.684 158.589 364.261 155.114 364.261 151.317C364.261 147.547 363.684 144.084 362.527 140.93C361.396 137.749 359.649 135.197 357.286 133.273C354.922 131.349 351.94 130.388 348.343 130.388C344.72 130.388 341.714 131.349 339.324 133.273C336.96 135.197 335.2 137.749 334.044 140.93C332.914 144.084 332.349 147.547 332.349 151.317C332.349 155.114 332.914 158.589 334.044 161.744C335.2 164.899 336.96 167.425 339.324 169.323C341.714 171.221 344.72 172.17 348.343 172.17ZM383.177 180.635V101.84H394.702V131.119H395.395C396.063 129.887 397.026 128.464 398.286 126.848C399.545 125.232 401.292 123.821 403.527 122.616C405.763 121.385 408.718 120.769 412.392 120.769C417.172 120.769 421.437 121.975 425.189 124.386C428.94 126.797 431.882 130.272 434.014 134.812C436.172 139.352 437.252 144.815 437.252 151.202C437.252 157.589 436.186 163.065 434.053 167.63C431.92 172.17 428.991 175.672 425.266 178.134C421.539 180.571 417.287 181.789 412.508 181.789C408.911 181.789 405.969 181.186 403.682 179.981C401.421 178.775 399.648 177.364 398.363 175.749C397.078 174.133 396.089 172.696 395.395 171.439H394.432V180.635H383.177ZM394.47 151.087C394.47 155.242 395.074 158.884 396.281 162.013C397.49 165.142 399.237 167.592 401.524 169.362C403.81 171.106 406.611 171.978 409.926 171.978C413.369 171.978 416.246 171.067 418.559 169.246C420.871 167.4 422.619 164.899 423.801 161.744C425.008 158.589 425.613 155.037 425.613 151.087C425.613 147.188 425.022 143.687 423.839 140.583C422.684 137.48 420.936 135.03 418.598 133.235C416.286 131.439 413.395 130.542 409.926 130.542C406.585 130.542 403.759 131.401 401.447 133.119C399.16 134.838 397.425 137.236 396.243 140.314C395.061 143.392 394.47 146.983 394.47 151.087ZM468.618 181.827C463.068 181.827 458.224 180.558 454.088 178.018C449.95 175.479 446.739 171.927 444.452 167.361C442.165 162.796 441.022 157.46 441.022 151.356C441.022 145.226 442.165 139.865 444.452 135.274C446.739 130.683 449.95 127.117 454.088 124.578C458.224 122.039 463.068 120.769 468.618 120.769C474.168 120.769 479.011 122.039 483.148 124.578C487.285 127.117 490.497 130.683 492.784 135.274C495.071 139.865 496.214 145.226 496.214 151.356C496.214 157.46 495.071 162.796 492.784 167.361C490.497 171.927 487.285 175.479 483.148 178.018C479.011 180.558 474.168 181.827 468.618 181.827ZM468.656 172.17C472.254 172.17 475.234 171.221 477.598 169.323C479.962 167.425 481.709 164.899 482.839 161.744C483.996 158.589 484.573 155.114 484.573 151.317C484.573 147.547 483.996 144.084 482.839 140.93C481.709 137.749 479.962 135.197 477.598 133.273C475.234 131.349 472.254 130.388 468.656 130.388C465.033 130.388 462.026 131.349 459.638 133.273C457.274 135.197 455.513 137.749 454.357 140.93C453.226 144.084 452.661 147.547 452.661 151.317C452.661 155.114 453.226 158.589 454.357 161.744C455.513 164.899 457.274 167.425 459.638 169.323C462.026 171.221 465.033 172.17 468.656 172.17ZM530.2 121.539V130.772H497.863V121.539H530.2ZM506.535 107.38H518.059V163.283C518.059 165.514 518.393 167.194 519.062 168.323C519.73 169.426 520.59 170.183 521.644 170.593C522.722 170.978 523.891 171.17 525.151 171.17C526.076 171.17 526.885 171.106 527.579 170.978C528.272 170.849 528.813 170.747 529.198 170.67L531.28 180.173C530.612 180.429 529.661 180.686 528.427 180.942C527.194 181.225 525.652 181.378 523.802 181.404C520.77 181.455 517.943 180.917 515.323 179.788C512.702 178.66 510.582 176.915 508.963 174.556C507.344 172.196 506.535 169.234 506.535 165.668V107.38ZM579.844 135.966L569.399 137.813C568.962 136.479 568.269 135.21 567.318 134.004C566.393 132.799 565.134 131.811 563.541 131.042C561.948 130.272 559.956 129.887 557.567 129.887C554.303 129.887 551.579 130.618 549.396 132.081C547.212 133.517 546.12 135.376 546.12 137.659C546.12 139.634 546.852 141.224 548.316 142.43C549.78 143.636 552.144 144.623 555.408 145.392L564.813 147.547C570.26 148.804 574.32 150.74 576.992 153.357C579.664 155.973 581 159.371 581 163.552C581 167.092 579.972 170.247 577.917 173.017C575.886 175.761 573.048 177.916 569.399 179.48C565.776 181.045 561.575 181.827 556.796 181.827C550.166 181.827 544.757 180.417 540.57 177.595C536.381 174.748 533.811 170.708 532.861 165.476L544 163.783C544.693 166.681 546.12 168.874 548.278 170.362C550.436 171.824 553.25 172.555 556.719 172.555C560.496 172.555 563.515 171.773 565.776 170.208C568.037 168.618 569.168 166.681 569.168 164.399C569.168 162.552 568.474 161 567.086 159.743C565.725 158.486 563.63 157.537 560.804 156.896L550.783 154.703C545.258 153.446 541.173 151.446 538.527 148.701C535.906 145.957 534.596 142.481 534.596 138.275C534.596 134.787 535.571 131.734 537.525 129.118C539.478 126.502 542.175 124.463 545.619 123.001C549.061 121.513 553.006 120.769 557.451 120.769C563.849 120.769 568.885 122.154 572.559 124.924C576.234 127.669 578.662 131.349 579.844 135.966Z" fill="#1C2943"/>
<rect x="61.7568" y="126.765" width="18.202" height="31.2037" rx="9.101" fill="#1C2943"/>
<rect x="95.5605" y="126.765" width="18.202" height="31.2037" rx="9.101" fill="#1C2943"/>
<path d="M87.7598 0C98.8895 6.08181e-05 107.912 9.02254 107.912 20.1523C107.912 26.1398 105.301 31.517 101.155 35.2078C98.1478 37.8848 95.5605 41.3571 95.5605 45.3831V50.9689C95.5605 56.1721 99.566 60.4427 104.688 61.3567C111.446 62.5627 117.808 64.4729 123.773 67.0879C132.017 70.5414 139.279 75.2224 145.559 81.1305C149.415 84.7584 148.949 90.8246 145.058 94.4159L135.857 102.909C131.728 106.722 125.33 106.283 120.966 102.742C117.549 99.9693 113.935 97.7164 110.122 95.9834C103.448 92.7981 96.1665 91.2061 88.2793 91.2061C80.8472 91.2061 74.0218 92.4198 67.8027 94.8467C61.5837 97.2736 56.1989 100.762 51.6484 105.312C47.0979 109.863 43.5327 115.248 40.9541 121.467C38.5272 127.686 37.3145 134.587 37.3145 142.172C37.3145 149.756 38.5272 156.658 40.9541 162.877C43.5327 169.096 47.0979 174.481 51.6484 179.031C56.1989 183.582 61.5838 187.07 67.8027 189.497C74.0218 191.924 80.8472 193.138 88.2793 193.138C96.1666 193.138 103.448 191.621 110.122 188.587C113.938 186.766 117.556 184.424 120.976 181.561C125.321 177.923 131.784 177.446 135.948 181.29L145.058 189.7C148.949 193.292 149.414 199.356 145.567 202.994C139.285 208.935 132.021 213.689 123.773 217.256C112.701 222.11 100.187 224.537 86.2324 224.537C73.9462 224.537 62.4937 222.565 51.876 218.621C41.4098 214.526 32.3081 208.761 24.5723 201.329C16.8365 193.897 10.7699 185.174 6.37109 175.163C2.12397 165.152 2.37873e-06 154.155 0 142.172C0 130.189 2.12398 119.192 6.37109 109.181C10.7699 99.1695 16.8365 90.4472 24.5723 83.0146C32.4598 75.5821 41.6374 69.894 52.1035 65.9502C57.9591 63.6589 64.1233 62.0091 70.5962 61.0001C75.8238 60.1851 79.959 55.8715 79.959 50.5807V45.3831C79.959 41.3571 77.3717 37.8848 74.3647 35.2078C70.2188 31.517 67.6074 26.1398 67.6074 20.1523C67.6074 9.0225 76.63 0 87.7598 0Z" fill="url(#paint0_linear_7_123)"/>
<defs>
<linearGradient id="paint0_linear_7_123" x1="24.784" y1="16.6213" x2="150.84" y2="223.017" gradientUnits="userSpaceOnUse">
<stop stop-color="#FDE80F"/>
<stop offset="0.221154" stop-color="#FF9600"/>
<stop offset="0.480769" stop-color="#B2C38A"/>
<stop offset="0.7" stop-color="#79ABE8"/>
<stop offset="1" stop-color="#4B94FC"/>
</linearGradient>
</defs>
</svg>
