<svg width="124" height="118" viewBox="0 0 124 118" fill="none" xmlns="http://www.w3.org/2000/svg">
<path d="M92.6175 0.364861H31.5025C14.6184 0.364861 0.882751 14.1046 0.882751 30.9937V86.9215C0.882751 103.811 14.6184 117.55 31.5025 117.55H92.6175C109.502 117.55 123.237 103.811 123.237 86.9215V30.9937C123.237 14.1046 109.502 0.364861 92.6175 0.364861ZM11.6845 30.9937C11.6845 20.0642 20.5763 11.1697 31.5025 11.1697H92.6175C103.544 11.1697 112.436 20.0642 112.436 30.9937V86.9215C112.436 97.851 103.544 106.745 92.6175 106.745H31.5025C20.5763 106.745 11.6845 97.851 11.6845 86.9215V30.9937Z" fill="url(#paint0_linear_1_502)"/>
<path d="M62.0602 87.4407C77.761 87.4407 90.5417 74.6631 90.5417 58.9507C90.5417 43.2383 77.7679 30.4607 62.0602 30.4607C46.3524 30.4607 33.5786 43.2383 33.5786 58.9507C33.5786 74.6631 46.3524 87.4407 62.0602 87.4407ZM62.0602 41.2725C71.8101 41.2725 79.74 49.2048 79.74 58.9576C79.74 68.7104 71.8101 76.6427 62.0602 76.6427C52.3103 76.6427 44.3803 68.7104 44.3803 58.9576C44.3803 49.2048 52.3103 41.2725 62.0602 41.2725Z" fill="url(#paint1_linear_1_502)"/>
<path d="M93.1782 35.0637C97.4061 35.0637 100.852 31.6236 100.852 27.3874C100.852 23.1513 97.413 19.7112 93.1782 19.7112C88.9433 19.7112 85.5042 23.1513 85.5042 27.3874C85.5042 31.6236 88.9433 35.0637 93.1782 35.0637Z" fill="url(#paint2_linear_1_502)"/>
<defs>
<linearGradient id="paint0_linear_1_502" x1="11.1585" y1="109.867" x2="112.985" y2="8.07804" gradientUnits="userSpaceOnUse">
<stop stop-color="#FAAD4F"/>
<stop offset="0.35" stop-color="#DD2A7B"/>
<stop offset="0.62" stop-color="#9537B0"/>
<stop offset="1" stop-color="#515BD4"/>
</linearGradient>
<linearGradient id="paint1_linear_1_502" x1="41.9307" y1="79.093" x2="82.1946" y2="38.834" gradientUnits="userSpaceOnUse">
<stop stop-color="#FAAD4F"/>
<stop offset="0.35" stop-color="#DD2A7B"/>
<stop offset="0.62" stop-color="#9537B0"/>
<stop offset="1" stop-color="#515BD4"/>
</linearGradient>
<linearGradient id="paint2_linear_1_502" x1="87.7531" y1="32.8141" x2="98.6064" y2="21.964" gradientUnits="userSpaceOnUse">
<stop stop-color="#FAAD4F"/>
<stop offset="0.35" stop-color="#DD2A7B"/>
<stop offset="0.62" stop-color="#9537B0"/>
<stop offset="1" stop-color="#515BD4"/>
</linearGradient>
</defs>
</svg>
