<svg width="48" height="48" viewBox="0 0 48 48" fill="none" xmlns="http://www.w3.org/2000/svg">
<path fill-rule="evenodd" clip-rule="evenodd" d="M20.023 18.1108V16.4078C19.432 16.3241 18.8359 16.2807 18.239 16.2778C10.939 16.2778 5 22.2178 5 29.5178C5 33.9958 7.238 37.9598 10.652 40.3568C8.36604 37.9122 7.09516 34.6898 7.097 31.3428C7.097 24.1468 12.867 18.2788 20.023 18.1108Z" fill="#00F2EA"/>
<path fill-rule="evenodd" clip-rule="evenodd" d="M20.335 37.3889C23.592 37.3889 26.249 34.7979 26.37 31.5689L26.381 2.74395H31.647C31.5346 2.1421 31.4777 1.5312 31.477 0.918945H24.285L24.273 29.7449C24.153 32.9729 21.495 35.5629 18.239 35.5629C17.2614 35.5633 16.2986 35.3251 15.434 34.8689C15.9923 35.6478 16.7279 36.2826 17.5802 36.7208C18.4324 37.159 19.3767 37.388 20.335 37.3889ZM41.484 12.5279V10.9259C39.5487 10.9277 37.655 10.3647 36.035 9.30595C37.4553 10.9412 39.3666 12.0718 41.484 12.5279Z" fill="#00F2EA"/>
<path fill-rule="evenodd" clip-rule="evenodd" d="M36.035 9.30487C34.4474 7.48834 33.5729 5.1574 33.574 2.74487H31.647C31.8965 4.07832 32.414 5.34726 33.1683 6.47485C33.9225 7.60244 34.8978 8.56521 36.035 9.30487ZM18.239 23.4709C16.6361 23.4727 15.0993 24.1103 13.9659 25.2438C12.8324 26.3772 12.1948 27.9139 12.193 29.5169C12.1941 30.6195 12.4964 31.7009 13.0675 32.6442C13.6385 33.5875 14.4565 34.3567 15.433 34.8689C14.6895 33.8435 14.2891 32.6094 14.289 31.3429C14.2906 29.7398 14.928 28.2028 16.0615 27.0691C17.195 25.9354 18.7319 25.2977 20.335 25.2959C20.958 25.2959 21.555 25.3989 22.119 25.5759V18.2329C21.528 18.1492 20.9319 18.1057 20.335 18.1029C20.23 18.1029 20.127 18.1089 20.023 18.1109V23.7509C19.4461 23.5672 18.8445 23.4728 18.239 23.4709Z" fill="#FF004F"/>
<path fill-rule="evenodd" clip-rule="evenodd" d="M41.484 12.5279V18.1179C37.754 18.1179 34.299 16.9249 31.477 14.8999V29.5169C31.477 36.8169 25.539 42.7559 18.239 42.7559C15.418 42.7559 12.802 41.8659 10.652 40.3559C11.8881 41.6889 13.3862 42.7522 15.0524 43.4792C16.7187 44.2063 18.5171 44.5813 20.335 44.5809C27.635 44.5809 33.574 38.6419 33.574 31.3429V16.7259C36.4893 18.8222 39.9903 19.948 43.581 19.9439V12.7499C42.861 12.7499 42.161 12.6729 41.484 12.5279Z" fill="#FF004F"/>
<path fill-rule="evenodd" clip-rule="evenodd" d="M31.477 29.5169V14.8999C34.3921 16.9964 37.8932 18.1223 41.484 18.1179V12.5279C39.3668 12.0713 37.4549 10.9404 36.035 9.30487C34.8978 8.56521 33.9225 7.60244 33.1683 6.47485C32.414 5.34726 31.8965 4.07832 31.647 2.74487H26.381L26.37 31.5699C26.249 34.7979 23.592 37.3889 20.335 37.3889C19.3767 37.3879 18.4324 37.1588 17.5802 36.7206C16.728 36.2824 15.9923 35.6477 15.434 34.8689C14.4573 34.3569 13.6391 33.5877 13.0679 32.6444C12.4967 31.7011 12.1941 30.6196 12.193 29.5169C12.1948 27.9139 12.8324 26.3772 13.9659 25.2438C15.0993 24.1103 16.6361 23.4727 18.239 23.4709C18.861 23.4709 19.458 23.5729 20.023 23.7509V18.1109C12.867 18.2789 7.09698 24.1469 7.09698 31.3429C7.09698 34.8229 8.44899 37.9909 10.652 40.3569C12.8728 41.9203 15.523 42.7583 18.239 42.7559C25.539 42.7559 31.477 36.8169 31.477 29.5169Z" fill="white"/>
</svg>
