<svg width="127" height="89" viewBox="0 0 127 89" fill="none" xmlns="http://www.w3.org/2000/svg">
<path d="M105.223 88.2041C102.289 88.5225 99.2859 88.5779 96.4073 88.571C73.9528 88.5502 51.4982 88.5295 29.0506 88.5156C21.9856 88.5156 14.2909 88.2872 8.83123 83.795C2.67959 78.7213 1.39947 69.9238 0.901253 61.9637C0.209281 51.055 0.153916 40.1117 0.721334 29.1961C1.03272 23.2019 1.57936 17.0623 4.16042 11.6356C6.0149 7.73866 9.10802 4.23625 13.0661 2.39506C17.6677 0.256235 22.4839 0.636935 27.4384 0.630013C39.2988 0.616169 51.1592 0.609245 63.0196 0.595402C75.3506 0.581558 87.6884 0.574635 100.019 0.560791C105.846 0.560791 112.101 0.678462 116.855 4.04936C122.993 8.39623 124.66 16.6677 125.429 24.1502C126.847 37.9314 126.868 51.858 125.484 65.6392C124.91 71.322 123.955 77.3301 120.211 81.6423C116.502 85.92 111.001 87.5673 105.23 88.1972L105.223 88.2041Z" fill="#FF0209"/>
<path d="M83.5019 44.5763L50.0382 25.2507V63.9018L83.5019 44.5763Z" fill="white"/>
</svg>
